<svg xmlns="http://www.w3.org/2000/svg" viewBox="0 0 1090 720" font-family="Segoe UI, Roboto, Helvetica, Arial, sans-serif" xml:space="preserve" role="img" aria-label="Where the NLP engine sits in a real product architecture">
<title>Where the NLP engine sits in a real product architecture</title>
<defs><marker id="ah" viewBox="0 0 10 10" refX="9" refY="5" markerWidth="7" markerHeight="7" orient="auto-start-reverse"><path d="M0,0 L10,5 L0,10 z" fill="#8a8983"/></marker></defs>
<rect width="1090" height="720" fill="#fcfcfb"/>
<rect x="20" y="28" width="760" height="96" rx="12" fill="#f2f1f8" stroke="#4a3aa7" stroke-width="1.5"/>
<text x="766" y="45" font-size="11.5" text-anchor="end" fill="#4a3aa7" font-weight="700">FRONTEND / UI</text>
<rect x="36.0" y="52" width="171.5" height="56" rx="8" fill="#ffffff" stroke="#4a3aa7" stroke-width="2"/>
<text x="121.75" y="76.425" font-size="13" text-anchor="middle" fill="#1d1d1f" font-weight="700">Mobile app</text>
<text x="121.75" y="92.675" font-size="10" text-anchor="middle" fill="#52514e">customer</text>
<rect x="221.5" y="52" width="171.5" height="56" rx="8" fill="#ffffff" stroke="#4a3aa7" stroke-width="2"/>
<text x="307.25" y="76.425" font-size="13" text-anchor="middle" fill="#1d1d1f" font-weight="700">Web chat</text>
<text x="307.25" y="92.675" font-size="10" text-anchor="middle" fill="#52514e">customer</text>
<rect x="407.0" y="52" width="171.5" height="56" rx="8" fill="#ffffff" stroke="#4a3aa7" stroke-width="2"/>
<text x="492.75" y="76.425" font-size="13" text-anchor="middle" fill="#1d1d1f" font-weight="700">WhatsApp bot</text>
<text x="492.75" y="92.675" font-size="10" text-anchor="middle" fill="#52514e">customer</text>
<rect x="592.5" y="52" width="171.5" height="56" rx="8" fill="#ffffff" stroke="#4a3aa7" stroke-width="2"/>
<text x="678.25" y="76.425" font-size="13" text-anchor="middle" fill="#1d1d1f" font-weight="700">Agent console (CRM)</text>
<text x="678.25" y="92.675" font-size="10" text-anchor="middle" fill="#52514e">support team</text>
<rect x="20" y="140" width="760" height="46" rx="12" fill="#f4f4f4" stroke="#6b6a65" stroke-width="1.5"/>
<text x="766" y="157" font-size="11.5" text-anchor="end" fill="#6b6a65" font-weight="700"></text>
<rect x="36" y="146" width="728" height="34" rx="8" fill="#ffffff" stroke="#6b6a65" stroke-width="2"/>
<text x="400.0" y="167.55" font-size="13" text-anchor="middle" fill="#1d1d1f" font-weight="700">API gateway  ·  authentication  ·  rate limiting  ·  routing</text>
<rect x="20" y="202" width="760" height="96" rx="12" fill="#f0f5fc" stroke="#2a78d6" stroke-width="1.5"/>
<text x="766" y="219" font-size="11.5" text-anchor="end" fill="#2a78d6" font-weight="700">BACKEND SERVICES</text>
<rect x="36.0" y="226" width="171.5" height="56" rx="8" fill="#c3d9f3" stroke="#2a78d6" stroke-width="2"/>
<text x="121.75" y="250.425" font-size="13" text-anchor="middle" fill="#1d1d1f" font-weight="700">Ticket service</text>
<text x="121.75" y="266.675" font-size="10" text-anchor="middle" fill="#52514e">creates &amp; routes tickets</text>
<rect x="221.5" y="226" width="171.5" height="56" rx="8" fill="#ffffff" stroke="#2a78d6" stroke-width="2"/>
<text x="307.25" y="250.425" font-size="13" text-anchor="middle" fill="#1d1d1f" font-weight="700">Order service</text>
<text x="307.25" y="266.675" font-size="10" text-anchor="middle" fill="#52514e">status, refunds</text>
<rect x="407.0" y="226" width="171.5" height="56" rx="8" fill="#ffffff" stroke="#2a78d6" stroke-width="2"/>
<text x="492.75" y="250.425" font-size="13" text-anchor="middle" fill="#1d1d1f" font-weight="700">Notification service</text>
<text x="492.75" y="266.675" font-size="10" text-anchor="middle" fill="#52514e">SMS, push, email</text>
<rect x="592.5" y="226" width="171.5" height="56" rx="8" fill="#ffffff" stroke="#2a78d6" stroke-width="2"/>
<text x="678.25" y="250.425" font-size="13" text-anchor="middle" fill="#1d1d1f" font-weight="700">User service</text>
<text x="678.25" y="266.675" font-size="10" text-anchor="middle" fill="#52514e">profiles, auth</text>
<rect x="20" y="318" width="760" height="150" rx="12" fill="#fcefd6" stroke="#eda100" stroke-width="3"/>
<text x="766" y="335" font-size="11.5" text-anchor="end" fill="#eda100" font-weight="700">NLP ENGINE  (its own microservice, called over REST / gRPC)</text>
<rect x="36.0" y="348" width="171.5" height="74" rx="8" fill="#ffffff" stroke="#eb6834" stroke-width="2"/>
<text x="121.75" y="373.3" font-size="13" text-anchor="middle" fill="#1d1d1f" font-weight="700">Pre-processing</text>
<text x="121.75" y="389.55" font-size="10" text-anchor="middle" fill="#52514e">normalize · regex</text>
<text x="121.75" y="405.8" font-size="10" text-anchor="middle" fill="#52514e">PII masking</text>
<rect x="221.5" y="348" width="171.5" height="74" rx="8" fill="#ffffff" stroke="#eb6834" stroke-width="2"/>
<text x="307.25" y="373.3" font-size="13" text-anchor="middle" fill="#1d1d1f" font-weight="700">NLP models</text>
<text x="307.25" y="389.55" font-size="10" text-anchor="middle" fill="#52514e">intent · NER</text>
<text x="307.25" y="405.8" font-size="10" text-anchor="middle" fill="#52514e">sentiment</text>
<rect x="407.0" y="348" width="171.5" height="74" rx="8" fill="#ffffff" stroke="#eb6834" stroke-width="2"/>
<text x="492.75" y="373.3" font-size="13" text-anchor="middle" fill="#1d1d1f" font-weight="700">LLM gateway</text>
<text x="492.75" y="389.55" font-size="10" text-anchor="middle" fill="#52514e">reply drafts</text>
<text x="492.75" y="405.8" font-size="10" text-anchor="middle" fill="#52514e">long-tail cases</text>
<rect x="592.5" y="348" width="171.5" height="74" rx="8" fill="#ffffff" stroke="#eb6834" stroke-width="2"/>
<text x="678.25" y="373.3" font-size="13" text-anchor="middle" fill="#1d1d1f" font-weight="700">Guardrails</text>
<text x="678.25" y="389.55" font-size="10" text-anchor="middle" fill="#52514e">PII · policy</text>
<text x="678.25" y="405.8" font-size="10" text-anchor="middle" fill="#52514e">confidence checks</text>
<line x1="208.5" y1="385" x2="220.5" y2="385" stroke="#eb6834" stroke-width="2" marker-end="url(#ah)"/>
<line x1="394.0" y1="385" x2="406.0" y2="385" stroke="#eb6834" stroke-width="2" marker-end="url(#ah)"/>
<line x1="579.5" y1="385" x2="591.5" y2="385" stroke="#eb6834" stroke-width="2" marker-end="url(#ah)"/>
<rect x="36" y="432" width="728" height="28" rx="6" fill="#fffdf5" stroke="none"/>
<text x="400.0" y="451" font-size="12" text-anchor="middle" fill="#1d1d1f" font-family="Consolas, Menlo, monospace">returns JSON:  {"intent": "refund", "order_id": "4521", "sentiment": "angry", "priority": "high"}</text>
<rect x="20" y="488" width="760" height="96" rx="12" fill="#eff9f5" stroke="#1baf7a" stroke-width="1.5"/>
<text x="766" y="505" font-size="11.5" text-anchor="end" fill="#1baf7a" font-weight="700">DATA LAYER</text>
<rect x="36.0" y="512" width="171.5" height="56" rx="8" fill="#ffffff" stroke="#1baf7a" stroke-width="2"/>
<text x="121.75" y="536.425" font-size="13" text-anchor="middle" fill="#1d1d1f" font-weight="700">Orders DB</text>
<text x="121.75" y="552.675" font-size="10" text-anchor="middle" fill="#52514e">PostgreSQL, MySQL</text>
<rect x="221.5" y="512" width="171.5" height="56" rx="8" fill="#ffffff" stroke="#1baf7a" stroke-width="2"/>
<text x="307.25" y="536.425" font-size="13" text-anchor="middle" fill="#1d1d1f" font-weight="700">Event stream</text>
<text x="307.25" y="552.675" font-size="10" text-anchor="middle" fill="#52514e">Kafka: every ticket + prediction</text>
<rect x="407.0" y="512" width="171.5" height="56" rx="8" fill="#ffffff" stroke="#1baf7a" stroke-width="2"/>
<text x="492.75" y="536.425" font-size="13" text-anchor="middle" fill="#1d1d1f" font-weight="700">Data lake / warehouse</text>
<text x="492.75" y="552.675" font-size="10" text-anchor="middle" fill="#52514e">raw text, labels, metrics</text>
<rect x="592.5" y="512" width="171.5" height="56" rx="8" fill="#ffffff" stroke="#1baf7a" stroke-width="2"/>
<text x="678.25" y="536.425" font-size="13" text-anchor="middle" fill="#1d1d1f" font-weight="700">Vector DB</text>
<text x="678.25" y="552.675" font-size="10" text-anchor="middle" fill="#52514e">embeddings for search / RAG</text>
<rect x="20" y="604" width="760" height="96" rx="12" fill="#fdf2f2" stroke="#e34948" stroke-width="1.5"/>
<text x="766" y="621" font-size="11.5" text-anchor="end" fill="#e34948" font-weight="700">ML PLATFORM  (offline: hours to days)</text>
<rect x="36.0" y="628" width="171.5" height="56" rx="8" fill="#ffffff" stroke="#e34948" stroke-width="2"/>
<text x="121.75" y="652.425" font-size="13" text-anchor="middle" fill="#1d1d1f" font-weight="700">Labelling tool</text>
<text x="121.75" y="668.675" font-size="10" text-anchor="middle" fill="#52514e">annotators, doctors, agents</text>
<rect x="221.5" y="628" width="171.5" height="56" rx="8" fill="#ffffff" stroke="#e34948" stroke-width="2"/>
<text x="307.25" y="652.425" font-size="13" text-anchor="middle" fill="#1d1d1f" font-weight="700">Training pipeline</text>
<text x="307.25" y="668.675" font-size="10" text-anchor="middle" fill="#52514e">fine-tune, experiment</text>
<rect x="407.0" y="628" width="171.5" height="56" rx="8" fill="#ffffff" stroke="#e34948" stroke-width="2"/>
<text x="492.75" y="652.425" font-size="13" text-anchor="middle" fill="#1d1d1f" font-weight="700">Evaluation</text>
<text x="492.75" y="668.675" font-size="10" text-anchor="middle" fill="#52514e">metrics, bias, sign-off</text>
<rect x="592.5" y="628" width="171.5" height="56" rx="8" fill="#ffffff" stroke="#e34948" stroke-width="2"/>
<text x="678.25" y="652.425" font-size="13" text-anchor="middle" fill="#1d1d1f" font-weight="700">Model registry</text>
<text x="678.25" y="668.675" font-size="10" text-anchor="middle" fill="#52514e">versioned models</text>
<line x1="121.75" y1="110" x2="121.75" y2="144" stroke="#8a8983" stroke-width="2" marker-end="url(#ah)"/>
<circle cx="143.75" cy="128" r="11" fill="#1d1d1f"/>
<text x="143.75" y="132.5" font-size="12" text-anchor="middle" fill="#ffffff" font-weight="700">1</text>
<line x1="121.75" y1="182" x2="121.75" y2="224" stroke="#8a8983" stroke-width="2" marker-end="url(#ah)"/>
<circle cx="143.75" cy="203" r="11" fill="#1d1d1f"/>
<text x="143.75" y="207.5" font-size="12" text-anchor="middle" fill="#ffffff" font-weight="700">2</text>
<line x1="101.75" y1="284" x2="101.75" y2="346" stroke="#8a8983" stroke-width="2" marker-end="url(#ah)"/>
<circle cx="79.75" cy="316" r="11" fill="#1d1d1f"/>
<text x="79.75" y="320.5" font-size="12" text-anchor="middle" fill="#ffffff" font-weight="700">3</text>
<line x1="141.75" y1="346" x2="141.75" y2="286" stroke="#eb6834" stroke-width="2" marker-end="url(#ah)" stroke-dasharray="5 4"/>
<circle cx="163.75" cy="316" r="11" fill="#1d1d1f"/>
<text x="163.75" y="320.5" font-size="12" text-anchor="middle" fill="#ffffff" font-weight="700">4</text>
<path d="M 768.25 254 L 783.25 254 L 783.25 82 L 769.25 82" fill="none" stroke="#2a78d6" stroke-width="2" marker-end="url(#ah)"/>
<circle cx="783.25" cy="168" r="11" fill="#1d1d1f"/>
<text x="783.25" y="172.5" font-size="12" text-anchor="middle" fill="#ffffff" font-weight="700">5</text>
<line x1="307.25" y1="462" x2="307.25" y2="510" stroke="#8a8983" stroke-width="2" marker-end="url(#ah)" stroke-dasharray="5 4"/>
<text x="317.25" y="490" font-size="11" text-anchor="start" fill="#52514e" font-style="italic">log</text>
<line x1="492.75" y1="570" x2="151.75" y2="626" stroke="#8a8983" stroke-width="2" marker-end="url(#ah)" stroke-dasharray="5 4"/>
<circle cx="327.25" cy="598" r="11" fill="#1d1d1f"/>
<text x="327.25" y="602.5" font-size="12" text-anchor="middle" fill="#ffffff" font-weight="700">6</text>
<path d="M 768.25 656 L 790 656 L 790 385 L 766.0 385" fill="none" stroke="#e34948" stroke-width="2" marker-end="url(#ah)" stroke-dasharray="5 4"/>
<text x="796" y="540" font-size="11" text-anchor="start" fill="#e34948" font-style="italic">deploy</text>
<text x="842" y="46" font-size="15" text-anchor="start" fill="#1d1d1f" font-weight="700">One ticket's journey</text>
<circle cx="853" cy="78" r="11" fill="#1d1d1f"/>
<text x="853" y="82.5" font-size="12" text-anchor="middle" fill="#ffffff" font-weight="700">1</text>
<text x="872" y="82" font-size="12" text-anchor="start" fill="#1d1d1f">Customer types in the app:</text>
<text x="872" y="99" font-size="12" text-anchor="start" fill="#52514e">"Order #4521 late,</text>
<text x="872" y="116" font-size="12" text-anchor="start" fill="#52514e">refund chahiye 😡"</text>
<circle cx="853" cy="153" r="11" fill="#1d1d1f"/>
<text x="853" y="157.5" font-size="12" text-anchor="middle" fill="#ffffff" font-weight="700">2</text>
<text x="872" y="157" font-size="12" text-anchor="start" fill="#1d1d1f">Gateway authenticates and</text>
<text x="872" y="174" font-size="12" text-anchor="start" fill="#52514e">forwards to the Ticket service.</text>
<circle cx="853" cy="211" r="11" fill="#1d1d1f"/>
<text x="853" y="215.5" font-size="12" text-anchor="middle" fill="#ffffff" font-weight="700">3</text>
<text x="872" y="215" font-size="12" text-anchor="start" fill="#1d1d1f">Ticket service calls the NLP</text>
<text x="872" y="232" font-size="12" text-anchor="start" fill="#52514e">engine. Budget: ~100 ms.</text>
<circle cx="853" cy="269" r="11" fill="#1d1d1f"/>
<text x="853" y="273.5" font-size="12" text-anchor="middle" fill="#ffffff" font-weight="700">4</text>
<text x="872" y="273" font-size="12" text-anchor="start" fill="#1d1d1f">NLP engine returns JSON:</text>
<text x="872" y="290" font-size="12" text-anchor="start" fill="#52514e">intent, order ID, sentiment,</text>
<text x="872" y="307" font-size="12" text-anchor="start" fill="#52514e">priority.</text>
<circle cx="853" cy="344" r="11" fill="#1d1d1f"/>
<text x="853" y="348.5" font-size="12" text-anchor="middle" fill="#ffffff" font-weight="700">5</text>
<text x="872" y="348" font-size="12" text-anchor="start" fill="#1d1d1f">Ticket is routed to the</text>
<text x="872" y="365" font-size="12" text-anchor="start" fill="#52514e">Refunds queue; the agent sees</text>
<text x="872" y="382" font-size="12" text-anchor="start" fill="#52514e">it in the CRM with a drafted</text>
<text x="872" y="399" font-size="12" text-anchor="start" fill="#52514e">reply. Or it is auto-resolved.</text>
<circle cx="853" cy="436" r="11" fill="#1d1d1f"/>
<text x="853" y="440.5" font-size="12" text-anchor="middle" fill="#ffffff" font-weight="700">6</text>
<text x="872" y="440" font-size="12" text-anchor="start" fill="#1d1d1f">Text + prediction are logged,</text>
<text x="872" y="457" font-size="12" text-anchor="start" fill="#52514e">sampled for labelling, and used</text>
<text x="872" y="474" font-size="12" text-anchor="start" fill="#52514e">to retrain the next model</text>
<text x="872" y="491" font-size="12" text-anchor="start" fill="#52514e">version, which is deployed</text>
<text x="872" y="508" font-size="12" text-anchor="start" fill="#52514e">back to the NLP engine.</text>
<text x="842" y="559" font-size="12" text-anchor="start" fill="#52514e" font-style="italic">Everything outside the</text>
<text x="842" y="576" font-size="12" text-anchor="start" fill="#52514e" font-style="italic">yellow box is standard</text>
<text x="842" y="593" font-size="12" text-anchor="start" fill="#52514e" font-style="italic">software engineering.</text>
</svg>
